# Blender v2.80 (sub 75) OBJ File: ''
# www.blender.org
mtllib APC.mtl
o Cube.004_Cube.009
v -1.556099 4.089075 0.113989
v -1.444938 4.024326 0.360634
v -1.437173 -3.430158 -0.976197
v -1.279763 -3.430158 1.766724
v -1.437173 3.979337 -0.976197
v -1.368817 4.050113 1.807683
v -1.556099 -3.632240 0.113989
v -1.444938 -3.280957 0.360634
v -1.444938 -3.361332 1.354969
v -1.279763 -3.590741 1.479459
v -1.368817 -3.166358 1.797297
v -1.444938 4.104146 1.454669
v -1.099398 -2.334279 -0.359846
v -1.099398 -2.857313 -0.661820
v -1.099398 -2.857313 -1.265768
v -1.099398 -2.334279 -1.567742
v -1.099398 -1.811245 -1.265768
v -1.099398 -1.811245 -0.661820
v -1.664273 -2.334279 -0.359846
v -1.664273 -2.857313 -0.661820
v -1.664273 -2.857313 -1.265767
v -1.664273 -2.334279 -1.567741
v -1.664273 -1.811245 -1.265767
v -1.664273 -1.811245 -0.661820
v -1.671551 -2.960454 -0.312890
v -1.671551 -2.960454 -1.707087
v -1.671551 -1.708104 -1.707087
v -1.671551 -1.708104 -0.312890
v -0.602837 1.634882 -0.359846
v -0.602837 1.111848 -0.661820
v -0.602837 1.111848 -1.265768
v -0.602837 1.634882 -1.567742
v -0.602837 2.157916 -1.265768
v -0.602837 2.157916 -0.661820
v -1.884184 1.634882 -0.359846
v -1.884184 1.111848 -0.661820
v -1.884184 1.111848 -1.265767
v -1.884184 1.634882 -1.567741
v -1.884184 2.157916 -1.265767
v -1.884184 2.157916 -0.661820
v -1.886639 1.035503 -0.341020
v -1.886639 1.035503 -1.675555
v -1.886639 2.234261 -1.675555
v -1.886639 2.234261 -0.341020
v 1.540057 4.089075 0.113989
v 1.428896 4.024326 0.360634
v 1.421131 -3.430158 -0.976197
v 1.263722 -3.430158 1.766724
v 1.421131 3.979337 -0.976197
v 1.352776 4.050113 1.807682
v 1.540057 -3.632240 0.113989
v 1.428896 -3.280957 0.360634
v 1.428896 -3.361332 1.354968
v 1.263722 -3.590741 1.479459
v 1.352776 -3.166358 1.797297
v 1.428896 4.104146 1.454668
v 1.083356 -2.334279 -0.359846
v 1.083356 -2.857313 -0.661820
v 1.083356 -2.857313 -1.265768
v 1.083356 -2.334279 -1.567742
v 1.083356 -1.811245 -1.265768
v 1.083356 -1.811245 -0.661820
v 1.648231 -2.334279 -0.359846
v 1.648231 -2.857313 -0.661820
v 1.648231 -2.857313 -1.265768
v 1.648231 -2.334279 -1.567742
v 1.648231 -1.811245 -1.265768
v 1.648231 -1.811245 -0.661820
v 1.656108 -2.937249 -0.318156
v 1.656108 -2.937249 -1.711913
v 1.656108 -1.685296 -1.711913
v 1.656108 -1.685296 -0.318156
v 0.586795 1.634882 -0.359846
v 0.586795 1.111848 -0.661820
v 0.586794 1.111848 -1.265768
v 0.586794 1.634882 -1.567742
v 0.586794 2.157916 -1.265768
v 0.586795 2.157916 -0.661820
v 1.868142 1.634882 -0.359846
v 1.868141 1.111848 -0.661820
v 1.868141 1.111848 -1.265768
v 1.868141 1.634882 -1.567742
v 1.868141 2.157916 -1.265768
v 1.868141 2.157916 -0.661820
v 1.881863 1.008707 -0.266695
v 1.881863 1.008707 -1.660893
v 1.881863 2.261056 -1.660893
v 1.881863 2.261056 -0.266695
v -1.546924 -3.302341 -0.706226
v 1.530882 -3.302341 -0.706226
v -1.546924 -3.760593 -0.706226
v 1.530882 -3.760593 -0.706226
v -1.546924 -3.760593 -1.073312
v 1.530882 -3.760593 -1.073313
v -1.546924 -3.228649 -1.073312
v 1.530882 -3.228649 -1.073313
v -0.819696 -3.720250 -0.708912
v 0.803654 -3.720250 -0.708912
v -0.819696 -3.902993 0.205293
v 0.803654 -3.902993 0.205292
v -0.384678 -1.396895 2.411149
v -0.384678 -3.394354 2.408274
v 0.368637 -1.396895 2.411149
v 0.368637 -3.394354 2.408274
v -0.589585 -3.392753 1.747425
v -0.589585 -1.395294 1.750300
v 0.573544 -3.392753 1.747425
v 0.573544 -1.395294 1.750300
v -0.323532 -3.356319 2.114359
v 0.307491 -3.356319 2.114359
v -0.323532 -4.182688 1.976650
v 0.307491 -4.182688 1.976650
v -0.195929 -3.303100 1.794997
v 0.179887 -3.303100 1.794997
v -0.195929 -4.129468 1.657287
v 0.179887 -4.129468 1.657287
v -0.008021 -3.393280 2.336150
v -0.008021 -4.219647 2.198441
vt 0.000253 0.194899
vt 0.078620 0.405329
vt 0.000253 0.396923
vt 0.220979 0.590699
vt 0.752565 0.514066
vt 0.744680 0.591565
vt 0.221175 0.206024
vt 0.239946 0.392091
vt 0.221176 0.385797
vt 0.948247 0.396920
vt 0.870802 0.186490
vt 0.948246 0.194896
vt 0.852780 0.397469
vt 0.775247 0.194347
vt 0.852779 0.194347
vt 0.000253 0.608936
vt 0.523956 0.810961
vt 0.000253 0.810961
vt 0.231684 0.494084
vt 0.206824 0.513164
vt 0.226119 0.423795
vt 0.220156 0.392628
vt 0.750006 0.392090
vt 0.239945 0.199729
vt 0.750005 0.199728
vt 0.108957 0.194349
vt 0.179466 0.397472
vt 0.108958 0.397472
vt 0.179466 0.194349
vt 0.197915 0.385797
vt 0.197914 0.206024
vt 0.870803 0.405326
vt 0.775248 0.397470
vt 0.748020 0.494937
vt 0.753789 0.417620
vt 0.958752 0.214313
vt 0.998677 0.171626
vt 0.998677 0.214313
vt 0.958752 0.043565
vt 0.998677 0.000878
vt 0.998677 0.043565
vt 0.958752 0.128939
vt 0.998677 0.086252
vt 0.998677 0.128939
vt 0.958752 0.171626
vt 0.958752 0.257000
vt 0.998677 0.257000
vt 0.958752 0.086252
vt 0.101873 0.999103
vt 0.190389 0.900562
vt 0.190389 0.999103
vt 0.893385 0.786312
vt 0.802819 0.828999
vt 0.802819 0.786312
vt 0.893385 0.957060
vt 0.802819 0.999747
vt 0.802819 0.957060
vt 0.893385 0.871686
vt 0.802819 0.914373
vt 0.802819 0.871686
vt 0.893385 0.828999
vt 0.893385 0.743625
vt 0.802819 0.743625
vt 0.893385 0.914373
vt 0.317775 0.999098
vt 0.406291 0.900556
vt 0.406291 0.999098
vt 0.220976 0.001122
vt 0.752563 0.077751
vt 0.206822 0.078657
vt 0.231682 0.097737
vt 0.226118 0.168026
vt 0.220155 0.199193
vt 0.207610 0.179605
vt 0.748019 0.096880
vt 0.753789 0.174197
vt 0.958752 0.468878
vt 0.998677 0.511565
vt 0.958752 0.511565
vt 0.958752 0.298130
vt 0.998677 0.340817
vt 0.958752 0.340817
vt 0.958752 0.383504
vt 0.998677 0.426191
vt 0.958752 0.426191
vt 0.998677 0.468878
vt 0.998677 0.554252
vt 0.958752 0.554252
vt 0.998677 0.383504
vt 0.209006 0.900562
vt 0.297522 0.999103
vt 0.209006 0.999103
vt 0.999338 0.828999
vt 0.908772 0.786312
vt 0.999338 0.786312
vt 0.999338 0.999747
vt 0.908772 0.957060
vt 0.999338 0.957060
vt 0.999338 0.914373
vt 0.908772 0.871686
vt 0.999338 0.871686
vt 0.908772 0.828999
vt 0.908772 0.743625
vt 0.999338 0.743625
vt 0.908772 0.914373
vt 0.000253 0.900562
vt 0.088769 0.999103
vt 0.000253 0.999103
vt 0.078620 0.186493
vt 0.721322 0.928338
vt 0.503782 0.895949
vt 0.721322 0.895949
vt 0.721322 0.954284
vt 0.503782 0.928338
vt 0.721322 0.991882
vt 0.503782 0.954284
vt 0.753711 0.928338
vt 0.471393 0.928338
vt 0.466185 0.954284
vt 0.115832 0.823529
vt 0.001094 0.889423
vt 0.001094 0.823529
vt 0.737351 0.794217
vt 0.596170 0.740973
vt 0.737350 0.740973
vt 0.784060 0.726490
vt 0.596216 0.843120
vt 0.596170 0.794217
vt 0.549461 0.808700
vt 0.596216 0.692070
vt 0.828744 0.575370
vt 0.887957 0.547986
vt 0.887957 0.575370
vt 0.828744 0.547986
vt 0.887957 0.523389
vt 0.887957 0.627350
vt 0.828744 0.602753
vt 0.887957 0.602753
vt 0.887957 0.496826
vt 0.828744 0.523389
vt 0.828744 0.496826
vt 0.857267 0.654409
vt 0.870548 0.693185
vt 0.843985 0.693185
vt 0.523956 0.608936
vt 0.207611 0.412216
vt 0.958752 0.000878
vt 0.101873 0.900562
vt 0.893385 0.999747
vt 0.317775 0.900556
vt 0.744678 0.000253
vt 0.998677 0.298130
vt 0.297522 0.900562
vt 0.908772 0.999747
vt 0.088769 0.900562
vt 0.503782 0.991882
vt 0.758920 0.954284
vt 0.115832 0.889423
vt 0.784060 0.808700
vt 0.737396 0.843120
vt 0.549461 0.726490
vt 0.737396 0.692070
vt 0.828744 0.627350
vt 0.834966 0.670301
vt 0.879567 0.670301
vn -0.0000 -0.9833 -0.1823
vn -0.9941 0.0000 -0.1084
vn 0.0000 -0.1151 0.9934
vn -0.0000 0.9950 -0.1002
vn -0.0000 0.9973 -0.0728
vn -0.0000 0.0000 -1.0000
vn -0.9117 0.0000 0.4109
vn -0.8671 -0.4127 0.2789
vn -0.8778 -0.3828 0.2881
vn -0.8922 -0.3361 0.3017
vn 0.0000 -0.0014 1.0000
vn -0.0000 -0.9967 -0.0806
vn -0.0000 -0.4770 -0.8789
vn 0.0000 -0.8729 0.4879
vn 0.0000 0.9672 0.2539
vn 0.0000 0.9885 0.1513
vn -1.0000 0.0000 0.0000
vn -0.9852 -0.0022 0.1716
vn -0.9779 -0.0004 0.2090
vn -0.9853 -0.0023 0.1706
vn 0.0000 1.0000 0.0000
vn 0.0000 -0.5000 -0.8660
vn 0.0000 -0.5000 0.8660
vn 0.0000 0.5000 0.8660
vn 0.0000 0.5000 -0.8660
vn 0.0000 -1.0000 -0.0000
vn 0.9941 0.0000 -0.1084
vn 0.9117 0.0000 0.4109
vn 0.8671 -0.4127 0.2789
vn 0.8778 -0.3828 0.2881
vn 0.8450 -0.4668 0.2609
vn 1.0000 0.0000 -0.0000
vn 0.9852 -0.0022 0.1716
vn 0.9779 -0.0004 0.2090
vn 0.9775 -0.0003 0.2107
vn 0.0000 -0.5746 0.8184
vn 0.0000 0.0000 1.0000
vn -0.0000 -0.9806 -0.1960
vn 0.0000 1.0000 0.0024
vn -0.9551 -0.0004 0.2962
vn -0.0000 -1.0000 -0.0024
vn 0.9551 -0.0004 0.2962
vn 0.5804 -0.1339 0.8033
vn 0.9304 0.0603 -0.3617
vn -0.9304 0.0603 -0.3617
vn 0.0000 0.1644 -0.9864
vn -0.5804 -0.1339 0.8033
vn -0.0000 -0.9864 -0.1644
vn -0.8450 -0.4668 0.2609
vn -0.9775 -0.0003 0.2107
vn 0.8922 -0.3361 0.3017
vn 0.9853 -0.0023 0.1706
usemtl Material.001
s 1
f 47/1/1 7/2/1 3/3/1
f 3/4/2 1/5/2 5/6/2
f 48/7/3 11/8/3 4/9/3
f 5/10/4 45/11/4 49/12/4
f 2/13/5 56/14/5 46/15/5
f 3/16/6 49/17/6 47/18/6
f 8/19/7 1/5/7 7/20/7
f 9/21/8 4/22/9 11/8/10
f 6/23/11 55/24/11 50/25/11
f 52/26/12 9/27/12 8/28/12
f 53/29/13 10/30/13 9/27/13
f 54/31/14 4/9/14 10/30/14
f 1/32/15 46/15/15 45/11/15
f 12/33/16 50/25/16 56/14/16
f 9/21/17 2/34/17 8/19/17
f 11/8/18 12/35/19 9/21/20
f 23/36/21 18/37/21 17/38/21
f 21/39/22 16/40/22 15/41/22
f 19/42/23 14/43/23 13/44/23
f 24/45/24 13/44/24 18/37/24
f 22/46/25 17/38/25 16/47/25
f 20/48/26 15/41/26 14/43/26
f 28/49/17 26/50/17 25/51/17
f 39/52/21 34/53/21 33/54/21
f 37/55/22 32/56/22 31/57/22
f 35/58/23 30/59/23 29/60/23
f 40/61/24 29/60/24 34/53/24
f 38/62/25 33/54/25 32/63/25
f 36/64/26 31/57/26 30/59/26
f 44/65/17 42/66/17 41/67/17
f 47/68/27 45/69/27 51/70/27
f 45/69/28 52/71/28 51/70/28
f 53/72/29 48/73/30 54/74/31
f 53/72/32 46/75/32 56/76/32
f 55/24/33 56/76/34 50/25/35
f 62/77/21 67/78/21 61/79/21
f 60/80/22 65/81/22 59/82/22
f 58/83/23 63/84/23 57/85/23
f 57/85/24 68/86/24 62/77/24
f 61/79/25 66/87/25 60/88/25
f 59/82/26 64/89/26 58/83/26
f 70/90/32 72/91/32 69/92/32
f 78/93/21 83/94/21 77/95/21
f 76/96/22 81/97/22 75/98/22
f 74/99/23 79/100/23 73/101/23
f 73/101/24 84/102/24 78/93/24
f 77/95/25 82/103/25 76/104/25
f 75/98/26 80/105/26 74/99/26
f 86/106/32 88/107/32 85/108/32
f 51/109/36 8/28/36 7/2/36
f 91/110/37 90/111/37 89/112/37
f 93/113/26 92/114/26 91/110/26
f 95/115/6 94/116/6 93/113/6
f 89/117/17 93/113/17 91/110/17
f 90/118/32 94/116/32 96/119/32
f 98/120/38 99/121/38 97/122/38
f 101/123/11 104/124/11 103/125/11
f 108/126/39 101/123/39 103/125/39
f 101/123/40 105/127/40 102/128/40
f 105/129/41 104/124/41 102/128/41
f 107/130/42 103/125/42 104/124/42
f 118/131/43 110/132/43 117/133/43
f 112/134/44 114/135/44 110/132/44
f 113/136/45 111/137/45 109/138/45
f 113/139/46 116/140/46 115/141/46
f 109/138/47 118/131/47 117/133/47
f 118/142/48 115/143/48 116/144/48
f 47/1/1 51/109/1 7/2/1
f 3/4/2 7/20/2 1/5/2
f 48/7/3 55/24/3 11/8/3
f 5/10/4 1/32/4 45/11/4
f 2/13/5 12/33/5 56/14/5
f 3/16/6 5/145/6 49/17/6
f 8/19/7 2/34/7 1/5/7
f 9/21/8 10/146/49 4/22/9
f 6/23/11 11/8/11 55/24/11
f 52/26/12 53/29/12 9/27/12
f 53/29/13 54/31/13 10/30/13
f 54/31/14 48/7/14 4/9/14
f 1/32/15 2/13/15 46/15/15
f 12/33/16 6/23/16 50/25/16
f 9/21/17 12/35/17 2/34/17
f 11/8/18 6/23/50 12/35/19
f 23/36/21 24/45/21 18/37/21
f 21/39/22 22/147/22 16/40/22
f 19/42/23 20/48/23 14/43/23
f 24/45/24 19/42/24 13/44/24
f 22/46/25 23/36/25 17/38/25
f 20/48/26 21/39/26 15/41/26
f 28/49/17 27/148/17 26/50/17
f 39/52/21 40/61/21 34/53/21
f 37/55/22 38/149/22 32/56/22
f 35/58/23 36/64/23 30/59/23
f 40/61/24 35/58/24 29/60/24
f 38/62/25 39/52/25 33/54/25
f 36/64/26 37/55/26 31/57/26
f 44/65/17 43/150/17 42/66/17
f 47/68/27 49/151/27 45/69/27
f 45/69/28 46/75/28 52/71/28
f 53/72/29 55/24/51 48/73/30
f 53/72/32 52/71/32 46/75/32
f 55/24/33 53/72/52 56/76/34
f 62/77/21 68/86/21 67/78/21
f 60/80/22 66/152/22 65/81/22
f 58/83/23 64/89/23 63/84/23
f 57/85/24 63/84/24 68/86/24
f 61/79/25 67/78/25 66/87/25
f 59/82/26 65/81/26 64/89/26
f 70/90/32 71/153/32 72/91/32
f 78/93/21 84/102/21 83/94/21
f 76/96/22 82/154/22 81/97/22
f 74/99/23 80/105/23 79/100/23
f 73/101/24 79/100/24 84/102/24
f 77/95/25 83/94/25 82/103/25
f 75/98/26 81/97/26 80/105/26
f 86/106/32 87/155/32 88/107/32
f 51/109/36 52/26/36 8/28/36
f 91/110/37 92/114/37 90/111/37
f 93/113/26 94/116/26 92/114/26
f 95/115/6 96/156/6 94/116/6
f 89/117/17 95/157/17 93/113/17
f 90/118/32 92/114/32 94/116/32
f 98/120/38 100/158/38 99/121/38
f 101/123/11 102/128/11 104/124/11
f 108/126/39 106/159/39 101/123/39
f 101/123/40 106/160/40 105/127/40
f 105/129/41 107/161/41 104/124/41
f 107/130/42 108/162/42 103/125/42
f 118/131/43 112/134/43 110/132/43
f 112/134/44 116/140/44 114/135/44
f 113/136/45 115/163/45 111/137/45
f 113/139/46 114/135/46 116/140/46
f 109/138/47 111/137/47 118/131/47
f 116/144/48 112/164/48 118/142/48
f 118/142/48 111/165/48 115/143/48
