# Blender v2.80 (sub 75) OBJ File: ''
# www.blender.org
mtllib tank.mtl
o MarkIVTracks.002_Cube.040
v 1.325399 2.779781 0.234678
v 1.327897 2.779781 0.528512
v 0.765695 2.779781 0.234678
v 1.349182 -2.874861 -0.694783
v 0.765695 -2.874861 -0.694784
v 1.327711 1.154006 -0.694783
v 0.765695 1.154006 -0.694784
v 1.352090 -1.432788 0.377757
v 0.765695 2.779781 0.528512
v 1.350729 -2.874861 -0.367334
v 0.765695 -2.874861 -0.367334
v 0.765695 -1.432788 0.377757
v -1.292372 2.779781 0.234678
v -1.294870 2.779781 0.528511
v -0.732668 2.779781 0.234678
v -1.316155 -2.874861 -0.694784
v -0.732668 -2.874861 -0.694784
v -1.294684 1.154006 -0.694784
v -0.732668 1.154006 -0.694784
v -1.319063 -1.432788 0.377757
v -0.732668 2.779781 0.528511
v -1.317701 -2.874861 -0.367334
v -0.732668 -2.874861 -0.367334
v -0.732668 -1.432788 0.377757
v 1.325399 2.779781 0.234678
v 1.327897 2.779781 0.528512
v 0.583572 1.475105 1.138941
v 0.765695 2.779781 0.234678
v 1.349182 -2.874861 -0.694783
v 0.765695 -2.874861 -0.694784
v 1.327711 1.154006 -0.694783
v 0.765695 1.154006 -0.694784
v 1.723346 1.313640 -0.253278
v 1.352090 -1.432788 0.377757
v 0.765695 2.779781 0.528512
v 1.350729 -2.874861 -0.367334
v 0.765695 -2.874861 -0.367334
v 1.599496 1.313640 -0.129428
v 0.765695 -1.432788 0.377757
v 0.765696 -0.395589 0.377757
v 0.583572 0.277096 1.047051
v 1.315897 0.527407 0.271491
v 1.322362 -0.814287 0.271491
v 1.792278 0.439120 0.179041
v 1.798320 -0.726000 0.179041
v 1.315897 0.527407 -0.480776
v 1.322362 -0.814287 -0.480776
v 1.792278 0.439120 -0.384433
v 1.798320 -0.726000 -0.384433
v 1.599496 1.313640 0.188850
v 1.723346 1.313640 0.065001
v 1.482370 1.313640 0.071723
v 1.606219 1.313640 -0.052126
v 1.723346 0.409584 0.065001
v 1.599496 0.409584 0.188850
v 1.606219 0.409584 -0.052126
v 1.482370 0.409584 0.071723
v 1.482370 1.313640 -0.246555
v 1.606220 1.313640 -0.370404
v 1.723346 0.409584 -0.253278
v 1.599496 0.409584 -0.129428
v 1.606220 0.409584 -0.370404
v 1.482370 0.409584 -0.246555
v 0.765696 -1.610577 0.237837
v 0.765696 -1.936839 -0.322632
v 0.765696 -2.139960 -0.390090
v 0.765696 -2.139960 -0.646550
v 0.765696 1.133461 -0.428917
v 0.765696 1.993498 0.206383
v 0.765696 1.771717 0.454001
v -1.292372 2.779781 0.234678
v -1.294870 2.779781 0.528511
v -0.550545 1.475105 1.138941
v -0.732668 2.779781 0.234678
v -1.316155 -2.874861 -0.694784
v -0.732668 -2.874861 -0.694784
v -1.294684 1.154006 -0.694784
v -0.732668 1.154006 -0.694784
v -1.573837 1.313640 -0.370405
v -1.319063 -1.432788 0.377757
v -0.732668 2.779781 0.528511
v -1.317701 -2.874861 -0.367334
v -0.732668 -2.874861 -0.367334
v -1.697687 1.313640 -0.246555
v -0.732668 -1.432788 0.377757
v -0.732669 -0.395589 0.377757
v -0.550545 0.277096 1.047050
v -1.282870 0.527407 0.271491
v -1.289335 -0.814287 0.271491
v -1.759251 0.439120 0.179041
v -1.765293 -0.726000 0.179041
v -1.282870 0.527407 -0.480776
v -1.289335 -0.814287 -0.480776
v -1.759251 0.439120 -0.384434
v -1.765293 -0.726000 -0.384434
v -1.697687 1.313640 0.071723
v -1.573838 1.313640 -0.052126
v -1.580561 1.313640 0.188849
v -1.456711 1.313640 0.065000
v -1.573838 0.409584 -0.052126
v -1.697687 0.409584 0.071723
v -1.456711 0.409584 0.065000
v -1.580561 0.409584 0.188849
v -1.580561 1.313640 -0.129429
v -1.456711 1.313640 -0.253278
v -1.573837 0.409584 -0.370405
v -1.697687 0.409584 -0.246555
v -1.456711 0.409584 -0.253278
v -1.580561 0.409584 -0.129429
v -0.732669 -1.610577 0.237837
v -0.732669 -1.936839 -0.322632
v -0.732669 -2.139960 -0.390090
v -0.732669 -2.139960 -0.646551
v -0.732669 1.133461 -0.428917
v -0.732669 1.993498 0.206383
v -0.732669 1.771717 0.454001
v 0.541192 -0.847118 0.304191
v -0.508165 -0.847118 0.304190
v -0.333390 -0.975551 0.530160
v 0.366417 -0.975551 0.530161
v 0.366417 -1.452143 0.498451
v -0.333390 -1.452143 0.498450
v -0.508165 -1.572753 0.207194
v 0.541192 -1.572753 0.207194
v -0.120738 -2.097419 0.268577
v -0.244587 -2.097419 0.144728
v -0.237864 -2.097419 0.385704
v -0.361714 -2.097419 0.261854
v -0.244587 -0.074035 0.380219
v -0.120738 -0.074035 0.504069
v -0.361714 -0.074035 0.497346
v -0.237864 -0.074035 0.621195
vt 0.015748 0.466209
vt 0.001998 0.492399
vt 0.001998 0.466209
vt 0.010912 0.358425
vt 0.199435 0.384723
vt 0.010912 0.384723
vt 0.157490 0.468987
vt 0.142167 0.441684
vt 0.157490 0.441611
vt 0.077952 0.466034
vt 0.001998 0.438658
vt 0.077952 0.438658
vt 0.199243 0.329869
vt 0.001998 0.356176
vt 0.001998 0.329870
vt 0.089628 0.438547
vt 0.002031 0.412249
vt 0.089660 0.412249
vt 0.015859 0.466209
vt 0.029608 0.492399
vt 0.015859 0.492516
vt 0.001998 0.411133
vt 0.190521 0.384834
vt 0.190521 0.412137
vt 0.117045 0.468914
vt 0.132367 0.441611
vt 0.132367 0.468987
vt 0.116181 0.439688
vt 0.192135 0.412312
vt 0.192135 0.439688
vt 0.001998 0.303451
vt 0.199243 0.329758
vt 0.001998 0.329758
vt 0.170787 0.472667
vt 0.083157 0.498858
vt 0.083157 0.472559
vt 0.162848 0.852400
vt 0.413690 0.843878
vt 0.499556 0.888248
vt 0.430065 0.656265
vt 0.414794 0.745485
vt 0.414794 0.656265
vt 0.428677 0.926224
vt 0.374845 0.936653
vt 0.374845 0.926224
vt 0.033096 0.784337
vt 0.119132 0.740944
vt 0.162125 0.779178
vt 0.428677 0.936653
vt 0.374845 0.946516
vt 0.364982 0.946516
vt 0.374845 0.956945
vt 0.364982 0.956945
vt 0.428677 0.916361
vt 0.374845 0.916361
vt 0.261679 0.656079
vt 0.198011 0.745299
vt 0.198011 0.656079
vt 0.500134 0.773885
vt 0.260232 0.754386
vt 0.500133 0.754387
vt 0.175635 0.751788
vt 0.119132 0.673413
vt 0.175635 0.662568
vt 0.402050 0.656265
vt 0.363434 0.745485
vt 0.363434 0.656265
vt 0.110440 0.804171
vt 0.035953 0.833068
vt 0.030549 0.804200
vt 0.134155 0.827563
vt 0.105330 0.866620
vt 0.105330 0.833068
vt 0.007104 0.827563
vt 0.035953 0.866620
vt 0.007104 0.872356
vt 0.110440 0.895562
vt 0.363630 0.999776
vt 0.373493 0.989347
vt 0.373493 0.999776
vt 0.427325 0.969054
vt 0.373493 0.979483
vt 0.373493 0.969054
vt 0.427325 0.979483
vt 0.402050 0.745485
vt 0.427325 0.959191
vt 0.373493 0.959191
vt 0.195602 0.909146
vt 0.000257 0.998366
vt 0.000257 0.909146
vt 0.281472 0.656079
vt 0.261679 0.745299
vt 0.290610 0.656265
vt 0.290610 0.745485
vt 0.047587 0.740944
vt 0.003143 0.662568
vt 0.047587 0.673413
vt 0.414288 0.564127
vt 0.163446 0.555605
vt 0.500155 0.519758
vt 0.443647 0.924729
vt 0.497479 0.935158
vt 0.443647 0.935158
vt 0.033096 0.630020
vt 0.162125 0.635179
vt 0.443647 0.914866
vt 0.497479 0.924729
vt 0.433784 0.935158
vt 0.497479 0.945022
vt 0.443647 0.945022
vt 0.500083 0.631588
vt 0.260185 0.651085
vt 0.163379 0.595741
vt 0.042252 0.568899
vt 0.116739 0.597797
vt 0.036848 0.597767
vt 0.111630 0.535348
vt 0.140454 0.574406
vt 0.111630 0.568900
vt 0.013403 0.574404
vt 0.042253 0.535347
vt 0.116741 0.506407
vt 0.434021 0.979725
vt 0.443884 0.969296
vt 0.443884 0.979725
vt 0.497716 0.979725
vt 0.443884 0.959433
vt 0.497716 0.969296
vt 0.497716 0.989588
vt 0.443884 0.989588
vt 0.428677 0.956945
vt 0.427325 0.999776
vt 0.443647 0.955451
vt 0.443884 1.000018
vt 0.481358 0.676490
vt 0.446179 0.659100
vt 0.489706 0.656718
vt 0.446179 0.735551
vt 0.481358 0.718160
vt 0.489706 0.737933
vt 0.452917 0.718160
vt 0.437440 0.666083
vt 0.452917 0.676490
vt 0.500129 0.728567
vt 0.500129 0.666083
vt 0.329368 0.976790
vt 0.340051 0.986378
vt 0.330221 0.987185
vt 0.208926 0.987185
vt 0.208074 0.976790
vt 0.329415 0.997015
vt 0.328562 0.966960
vt 0.207267 0.966960
vt 0.208120 0.956566
vt 0.329415 0.956566
vt 0.259654 0.907746
vt 0.499555 0.907746
vt 0.414268 0.818254
vt 0.163426 0.809732
vt 0.414215 0.587221
vt 0.163379 0.578245
vt 0.260252 0.500259
vt 0.500154 0.500260
vt 0.015748 0.492516
vt 0.199435 0.357420
vt 0.142167 0.468987
vt 0.001998 0.466098
vt 0.199243 0.357309
vt 0.001998 0.438439
vt 0.029608 0.466209
vt 0.001998 0.384834
vt 0.117045 0.441611
vt 0.116181 0.412249
vt 0.199243 0.302319
vt 0.170787 0.498858
vt 0.162848 0.834903
vt 0.430065 0.745485
vt 0.428677 0.946516
vt 0.134155 0.872356
vt 0.030549 0.895533
vt 0.363630 0.989347
vt 0.427325 0.989347
vt 0.195602 0.998366
vt 0.281472 0.745299
vt 0.003143 0.751788
vt 0.162821 0.573090
vt 0.497479 0.914866
vt 0.433784 0.924729
vt 0.500083 0.651085
vt 0.140455 0.529612
vt 0.013404 0.529610
vt 0.036849 0.506434
vt 0.434021 0.969296
vt 0.497716 0.959433
vt 0.497479 0.955451
vt 0.497716 1.000018
vt 0.437440 0.728567
vt 0.339198 0.975984
vt 0.208120 0.997015
vt 0.162800 0.827217
vn 0.0000 1.0000 -0.0000
vn 0.0000 0.0000 -1.0000
vn 0.0000 -1.0000 -0.0000
vn -0.0000 -0.4590 0.8884
vn -0.0000 -0.0358 0.9994
vn 0.0000 0.4963 -0.8681
vn 1.0000 0.0054 -0.0051
vn 0.9999 0.0059 -0.0131
vn 0.9999 0.0058 -0.0099
vn 0.7071 0.0000 0.7071
vn 0.9663 -0.0157 0.2571
vn 0.9636 -0.0114 0.2672
vn 0.9624 -0.0096 0.2715
vn 0.7071 0.0000 -0.7071
vn -0.7071 0.0000 0.7071
vn 0.0000 0.5942 -0.8043
vn -1.0000 0.0000 -0.0000
vn -0.0000 -0.7053 0.7089
vn -0.0000 -0.8642 0.5031
vn 0.1905 0.0010 0.9817
vn 0.1906 0.0009 0.9817
vn 0.1907 0.0009 0.9817
vn 0.1824 -0.9832 0.0000
vn 0.1822 0.9833 0.0000
vn 1.0000 0.0052 0.0000
vn 0.1983 0.0010 -0.9801
vn 0.1984 0.0010 -0.9801
vn 0.1982 0.0010 -0.9802
vn -0.0000 -0.3152 0.9490
vn 0.0000 0.0663 -0.9978
vn -0.0000 0.7449 0.6672
vn -0.0000 -0.1144 0.9934
vn -0.0000 0.9177 0.3974
vn -0.9999 0.0059 -0.0131
vn -1.0000 0.0054 -0.0051
vn -0.9999 0.0058 -0.0099
vn -0.7071 0.0000 -0.7071
vn -0.9636 -0.0114 0.2672
vn -0.9663 -0.0157 0.2571
vn -0.9624 -0.0096 0.2715
vn 1.0000 0.0000 0.0000
vn -0.1906 0.0009 0.9817
vn -0.1905 0.0010 0.9817
vn -0.1907 0.0009 0.9817
vn -0.1824 -0.9832 -0.0000
vn -0.1822 0.9833 -0.0000
vn -1.0000 0.0052 -0.0000
vn -0.1984 0.0010 -0.9801
vn -0.1983 0.0010 -0.9801
vn -0.1982 0.0010 -0.9802
vn -0.0000 -0.0765 0.9971
vn -0.8329 -0.0641 0.5497
vn -0.8185 -0.0528 0.5721
vn -0.8419 -0.0715 0.5348
vn 0.8185 -0.0528 0.5721
vn 0.8329 -0.0641 0.5497
vn 0.8419 -0.0715 0.5348
vn -0.0000 0.8694 0.4941
vn -0.0000 -0.0664 0.9978
vn -0.0000 -0.9239 0.3826
vn 0.7047 0.0820 -0.7047
vn -0.7047 0.0820 -0.7047
vn 0.7047 -0.0820 0.7047
vn -0.7047 -0.0820 0.7047
vn 1.0000 0.0052 -0.0065
vn 1.0000 0.0053 -0.0047
vn -1.0000 0.0052 -0.0065
vn -1.0000 0.0053 -0.0047
vn 0.9999 0.0060 -0.0085
vn 0.9683 -0.0191 0.2492
vn -0.9999 0.0060 -0.0085
vn -0.9683 -0.0191 0.2492
vn -0.8012 -0.0397 0.5971
vn 0.8012 -0.0397 0.5971
usemtl Material.001
s 1
f 9/1/1 1/2/1 3/3/1
f 6/4/2 5/5/2 7/6/2
f 11/7/3 4/8/3 10/9/3
f 10/10/4 12/11/4 11/12/4
f 12/13/5 2/14/5 9/15/5
f 7/16/6 1/17/6 6/18/6
f 21/19/1 13/20/1 14/21/1
f 18/22/2 17/23/2 16/24/2
f 16/25/3 23/26/3 22/27/3
f 24/28/4 22/29/4 23/30/4
f 14/31/5 24/32/5 21/33/5
f 13/34/6 19/35/6 18/36/6
f 25/37/7 34/38/8 36/39/9
f 113/40/3 66/41/3 112/42/3
f 61/43/10 33/44/10 38/45/10
f 70/46/11 41/47/12 40/48/13
f 60/49/14 59/50/14 33/44/14
f 33/51/1 58/52/1 38/53/1
f 63/54/15 38/45/15 58/55/15
f 115/56/16 68/57/16 114/58/16
f 37/59/17 32/60/17 30/61/17
f 40/62/18 87/63/18 86/64/18
f 111/65/19 64/66/19 110/67/19
f 43/68/20 44/69/21 42/70/22
f 43/71/23 49/72/23 45/73/23
f 42/74/24 48/75/24 46/76/24
f 45/73/25 48/75/25 44/69/25
f 47/77/26 48/75/27 49/72/28
f 50/78/1 53/79/1 52/80/1
f 55/81/10 51/82/10 50/83/10
f 54/84/14 53/79/14 51/82/14
f 112/42/29 65/85/29 111/65/29
f 57/86/15 50/83/15 52/87/15
f 114/88/30 67/89/30 113/90/30
f 116/91/31 69/92/31 115/56/31
f 86/93/32 64/66/32 40/94/32
f 27/95/33 116/96/33 73/97/33
f 80/98/34 71/99/35 82/100/36
f 79/101/37 107/102/37 84/103/37
f 87/63/38 116/104/39 86/105/40
f 105/106/14 106/107/14 79/101/14
f 104/108/1 79/101/1 84/103/1
f 84/103/15 109/109/15 104/110/15
f 83/111/41 78/112/41 74/113/41
f 90/114/42 89/115/43 88/116/44
f 95/117/45 89/118/45 91/119/45
f 88/120/46 94/121/46 90/114/46
f 94/121/47 91/119/47 90/114/47
f 94/121/48 93/122/49 95/117/50
f 98/123/1 97/124/1 96/125/1
f 97/124/37 101/126/37 96/125/37
f 99/127/14 100/128/14 97/124/14
f 96/125/15 103/129/15 98/130/15
f 41/47/51 73/97/51 87/63/51
f 59/50/37 63/131/37 58/52/37
f 53/79/37 57/132/37 52/80/37
f 109/109/10 105/133/10 104/110/10
f 103/129/10 99/134/10 98/130/10
f 122/135/52 118/136/53 123/137/54
f 117/138/55 121/139/56 124/140/57
f 120/141/58 118/142/58 119/143/58
f 121/139/59 119/143/59 122/135/59
f 124/144/60 122/135/60 123/145/60
f 125/146/3 128/147/3 126/148/3
f 125/146/61 129/149/61 130/150/61
f 128/151/62 129/149/62 126/148/62
f 127/152/63 130/150/63 132/153/63
f 127/152/64 131/154/64 128/155/64
f 31/156/65 36/39/9 29/157/66
f 39/158/17 28/159/17 37/59/17
f 85/160/41 74/113/41 81/161/41
f 82/100/36 77/162/67 75/163/68
f 9/1/1 2/164/1 1/2/1
f 6/4/2 4/165/2 5/5/2
f 11/7/3 5/166/3 4/8/3
f 10/10/4 8/167/4 12/11/4
f 12/13/5 8/168/5 2/14/5
f 7/16/6 3/169/6 1/17/6
f 21/19/1 15/170/1 13/20/1
f 18/22/2 19/171/2 17/23/2
f 16/25/3 17/172/3 23/26/3
f 24/28/4 20/173/4 22/29/4
f 14/31/5 20/174/5 24/32/5
f 13/34/6 15/175/6 19/35/6
f 25/37/7 26/176/69 34/38/8
f 113/40/3 67/177/3 66/41/3
f 61/43/10 60/49/10 33/44/10
f 70/46/11 27/95/70 41/47/12
f 60/49/14 62/178/14 59/50/14
f 33/51/1 59/50/1 58/52/1
f 63/54/15 61/43/15 38/45/15
f 115/56/16 69/92/16 68/57/16
f 37/59/17 28/159/17 32/60/17
f 40/62/18 41/47/18 87/63/18
f 111/65/19 65/85/19 64/66/19
f 43/68/20 45/73/20 44/69/21
f 43/71/23 47/179/23 49/72/23
f 42/74/24 44/69/24 48/75/24
f 45/73/25 49/72/25 48/75/25
f 47/77/26 46/180/27 48/75/27
f 50/78/1 51/181/1 53/79/1
f 55/81/10 54/84/10 51/82/10
f 54/84/14 56/182/14 53/79/14
f 112/42/29 66/41/29 65/85/29
f 57/86/15 55/81/15 50/83/15
f 114/88/30 68/183/30 67/89/30
f 116/91/31 70/184/31 69/92/31
f 86/93/32 110/67/32 64/66/32
f 27/95/33 70/185/33 116/96/33
f 80/98/34 72/186/71 71/99/35
f 79/101/37 106/107/37 107/102/37
f 87/63/38 73/97/72 116/104/39
f 105/106/14 108/187/14 106/107/14
f 104/108/1 105/188/1 79/101/1
f 84/103/15 107/102/15 109/109/15
f 83/111/41 76/189/41 78/112/41
f 90/114/42 91/119/43 89/115/43
f 95/117/45 93/190/45 89/118/45
f 88/120/46 92/191/46 94/121/46
f 94/121/47 95/117/47 91/119/47
f 94/121/48 92/192/48 93/122/49
f 98/123/1 99/193/1 97/124/1
f 97/124/37 100/128/37 101/126/37
f 99/127/14 102/194/14 100/128/14
f 96/125/15 101/126/15 103/129/15
f 41/47/51 27/95/51 73/97/51
f 59/50/37 62/178/37 63/131/37
f 53/79/37 56/182/37 57/132/37
f 109/109/10 108/195/10 105/133/10
f 103/129/10 102/196/10 99/134/10
f 122/135/52 119/143/73 118/136/53
f 117/138/55 120/141/74 121/139/56
f 120/141/58 117/197/58 118/142/58
f 121/139/59 120/141/59 119/143/59
f 124/144/60 121/139/60 122/135/60
f 125/146/3 127/198/3 128/147/3
f 125/146/61 126/148/61 129/149/61
f 128/151/62 131/199/62 129/149/62
f 127/152/63 125/146/63 130/150/63
f 127/152/64 132/153/64 131/154/64
f 31/156/65 25/37/7 36/39/9
f 39/158/17 35/200/17 28/159/17
f 85/160/41 83/111/41 74/113/41
f 82/100/36 71/99/35 77/162/67
